# xmcd
#
# Track frame offsets:
#	150
#	19722
#	43288
#	63807
#	88664
#	114648
#	130588
#	155139
#	176829
#	205997
#	221232
#	242966
#
# Disc length: 3449 seconds
#
# Revision: 1
# Processed by: cddbd v1.5.2PL0 Copyright (c) Steve Scherf et al.
# Submitted via: audiograbber 1.83.01
#
DISCID=b20d770c
DTITLE=Chasin and McIntire - Live at the Ceder Creek
DYEAR=1900
DGENRE=Blues
TTITLE0=St. James Infirmary
TTITLE1=Fever
TTITLE2=Blue Moon
TTITLE3=Motherless Child
TTITLE4=Summertime
TTITLE5=Baby What'cha want me to Do
TTITLE6=Moon Moon
TTITLE7=This Ain't the Way
TTITLE8=Scars
TTITLE9=Lemonade
TTITLE10=Georgia
TTITLE11=Happy to be Singin' the Blues
EXTD=
EXTT0=
EXTT1=
EXTT2=
EXTT3=
EXTT4=
EXTT5=
EXTT6=
EXTT7=
EXTT8=
EXTT9=
EXTT10=
EXTT11=
PLAYORDER=
